ply
format ascii 1.0
comment Created by Blender 3.4.1 - www.blender.org
element vertex 6
property float x
property float y
property float z
property float red
property float green
property float blue
element face 8
property list uchar uint vertex_indices
end_header
-0.424823 -0.659383 -1.59265 0.8 0.2 0.2
0.407141 1.11459 -1.99373 0.2 0.8 0.2
0.93389 -1.5588 -2.75237 0.2 0.2 0.8
-0.951021 -0.568008 -2.28 0.2 0.8 0.8
-0.119057 1.20596 -2.68108 0.8 0.2 0.8
0.407693 -1.46742 -3.43972 0.8 0.8 0.2
3 0 1 2
3 0 1 3
3 1 3 4
3 0 3 2
3 3 2 5
3 3 4 5
3 1 2 4
3 2 4 5
