ply
format ascii 1.0
comment Created by Blender 3.4.1 - www.blender.org
element vertex 8
property float x
property float y
property float z
property float red
property float green
property float blue
element face 12
property list uchar uint vertex_indices
end_header
-0.492931 0.128937 -10.741019 0.2 0.2 0.2
0.025111 -1.847709 -9.584261 0.8 0.2 0.2
-1.253942 -1.113622 -7.757049 0.2 0.8 0.2
-1.771980 0.863028 -8.913807 0.2 0.2 0.8
0.645860 -0.080392 -6.842286 0.2 0.8 0.8
0.127818 1.896260 -7.999044 0.8 0.2 0.8
1.924910 -0.814484 -8.669510 0.8 0.8 0.2
1.406871 1.162166 -9.826268 0.8 0.8 0.8
3 0 1 2
3 0 2 3
3 3 2 4
3 3 4 5
3 5 4 6
3 5 6 7
3 7 6 1
3 7 1 0
3 3 5 7
3 3 7 0
3 4 2 1
3 4 1 6
